HIERARCHY
ROOT Hips
{
  OFFSET 9.51162 15.2701 0.244827
  CHANNELS 6 Xposition Yposition Zposition Zrotation Xrotation Yrotation
  JOINT LHipJoint
  {
    OFFSET 0 1.60984 -0.00163934
    CHANNELS 6 Xposition Yposition Zposition Zrotation Xrotation Yrotation
    JOINT LeftUpLeg
    {
      OFFSET 1.74098 -1.60984 0.00163934
      CHANNELS 6 Xposition Yposition Zposition Zrotation Xrotation Yrotation
      JOINT LeftLeg
      {
        OFFSET -0.111475 -6.93934 -0.268852
        CHANNELS 6 Xposition Yposition Zposition Zrotation Xrotation Yrotation
        JOINT LeftFoot
        {
          OFFSET -0.103279 -6.4 -0.236066
          CHANNELS 6 Xposition Yposition Zposition Zrotation Xrotation Yrotation
          JOINT LeftToeBase
          {
            OFFSET 0.00983607 -1.60984 2.07377
            CHANNELS 6 Xposition Yposition Zposition Zrotation Xrotation Yrotation
            End Site
            {
              OFFSET 0 0 1.19016
            }
          }
        }
      }
    }
  }
  JOINT RHipJoint
  {
    OFFSET 0 1.60984 -0.00163934
    CHANNELS 6 Xposition Yposition Zposition Zrotation Xrotation Yrotation
    JOINT RightUpLeg
    {
      OFFSET -1.74098 -1.60984 0.00163934
      CHANNELS 6 Xposition Yposition Zposition Zrotation Xrotation Yrotation
      JOINT RightLeg
      {
        OFFSET 0.111475 -6.93934 -0.268852
        CHANNELS 6 Xposition Yposition Zposition Zrotation Xrotation Yrotation
        JOINT RightFoot
        {
          OFFSET 0.103279 -6.4 -0.236066
          CHANNELS 6 Xposition Yposition Zposition Zrotation Xrotation Yrotation
          JOINT RightToeBase
          {
            OFFSET -0.00983607 -1.60984 2.07377
            CHANNELS 6 Xposition Yposition Zposition Zrotation Xrotation Yrotation
            End Site
            {
              OFFSET 0 0 1.19016
            }
          }
        }
      }
    }
  }
  JOINT LowerBack
  {
    OFFSET 0 1.60984 -0.00163934
    CHANNELS 6 Xposition Yposition Zposition Zrotation Xrotation Yrotation
    JOINT Spine
    {
      OFFSET 0 2.29672 0.170492
      CHANNELS 6 Xposition Yposition Zposition Zrotation Xrotation Yrotation
      JOINT Spine1
      {
        OFFSET 0 2.28689 -0.265574
        CHANNELS 6 Xposition Yposition Zposition Zrotation Xrotation Yrotation
        JOINT Neck
        {
          OFFSET 0 2.42623 -0.0770492
          CHANNELS 6 Xposition Yposition Zposition Zrotation Xrotation Yrotation
          JOINT Neck1
          {
            OFFSET 0 1.77869 0.32459
            CHANNELS 6 Xposition Yposition Zposition Zrotation Xrotation Yrotation
            JOINT Head
            {
              OFFSET 0 0 0
              CHANNELS 6 Xposition Yposition Zposition Zrotation Xrotation Yrotation
              End Site
              {
                OFFSET 0 3.29016 0
              }
            }
          }
        }
        JOINT LeftShoulder
        {
          OFFSET 0.955738 2.42623 -0.0754098
          CHANNELS 6 Xposition Yposition Zposition Zrotation Xrotation Yrotation
          JOINT LeftArm
          {
            OFFSET 1.81967 -0.00819679 0
            CHANNELS 6 Xposition Yposition Zposition Zrotation Xrotation Yrotation
            JOINT LeftForeArm
            {
              OFFSET 4.0918 0.0114754 0
              CHANNELS 6 Xposition Yposition Zposition Zrotation Xrotation Yrotation
              JOINT LeftHand
              {
                OFFSET 5.08361 0.0245902 -0.0819672
                CHANNELS 6 Xposition Yposition Zposition Zrotation Xrotation Yrotation
                JOINT LeftFingerBase
                {
                  OFFSET 0 0 0
                  CHANNELS 6 Xposition Yposition Zposition Zrotation Xrotation Yrotation
                  JOINT LeftHandIndex1
                  {
                    OFFSET 1.7459 -0.111475 -0.0311475
                    CHANNELS 6 Xposition Yposition Zposition Zrotation Xrotation Yrotation
                    End Site
                    {
                      OFFSET 0.977049 -0.0622951 -0.0131148
                    }
                  }
                }
                JOINT LThumb
                {
                  OFFSET 0.952459 -0.347541 0.931148
                  CHANNELS 6 Xposition Yposition Zposition Zrotation Xrotation Yrotation
                  End Site
                  {
                    OFFSET 0.665574 -0.227869 0.0950819
                  }
                }
              }
            }
          }
        }
        JOINT RightShoulder
        {
          OFFSET -0.955738 2.42623 -0.0754098
          CHANNELS 6 Xposition Yposition Zposition Zrotation Xrotation Yrotation
          JOINT RightArm
          {
            OFFSET -1.81967 -0.00819679 0
            CHANNELS 6 Xposition Yposition Zposition Zrotation Xrotation Yrotation
            JOINT RightForeArm
            {
              OFFSET -4.0918 0.0114754 0
              CHANNELS 6 Xposition Yposition Zposition Zrotation Xrotation Yrotation
              JOINT RightHand
              {
                OFFSET -5.08361 0.0245902 -0.0819672
                CHANNELS 6 Xposition Yposition Zposition Zrotation Xrotation Yrotation
                JOINT RightFingerBase
                {
                  OFFSET 0 0 0
                  CHANNELS 6 Xposition Yposition Zposition Zrotation Xrotation Yrotation
                  JOINT RightHandIndex1
                  {
                    OFFSET -1.7459 -0.111475 -0.0311475
                    CHANNELS 6 Xposition Yposition Zposition Zrotation Xrotation Yrotation
                    End Site
                    {
                      OFFSET -0.977049 -0.0622951 -0.0131148
                    }
                  }
                }
                JOINT RThumb
                {
                  OFFSET -0.952459 -0.347541 0.931148
                  CHANNELS 6 Xposition Yposition Zposition Zrotation Xrotation Yrotation
                  End Site
                  {
                    OFFSET -0.665574 -0.227869 0.0950819
                  }
                }
              }
            }
          }
        }
      }
    }
  }
}
MOTION
Frames:	5
Frame Time:	0.0166667
10.0172 14.8405 0.374023 11.2646 7.3976 -78.7493 0 1.60984 -0.00163934 0 0 -0 1.74098 -1.60984 0.00163934 0.712377 -25.3344 -3.01409 -0.111475 -6.93934 -0.268852 0.0463284 26.0032 -0.434127 -0.103279 -6.4 -0.236066 -0.240121 -18.0553 11.4869 0.00983607 -1.60984 2.07377 -1.56507e-011 -1.08879e-010 3.86755e-012 0 1.60984 -0.00163934 0 0 -0 -1.74098 -1.60984 0.00163934 5.1513 -31.9634 4.37902 0.111475 -6.93934 -0.268852 -0.165564 38.6496 0.695288 0.103279 -6.4 -0.236066 13.4034 -22.254 -18.95 -0.00983607 -1.60984 2.07377 -2.96905e-012 -3.55347e-011 5.94764e-012 0 1.60984 -0.00163934 0 0 -0 0 2.29672 0.170492 5.76304 0.0968255 -1.43737 0 2.28689 -0.265574 11.5262 0.0487815 -2.87727 0 2.42623 -0.0770492 0.0865389 0.148146 -1.21949 0 1.77869 0.32459 0.0865336 0.148135 -1.21949 0 5.71282e-008 0 6.86144 20.496 -7.15512 0.955738 2.42623 -0.0754098 -28.0012 6.38604 -15.0784 1.81967 -0.00819679 1.1945e-009 -33.0426 28.1272 10.4076 4.0918 0.0114754 0 -4.59254 2.53477 -54.1794 5.08361 0.0245902 -0.0819672 17.2006 18.3958 -9.48465 0 0 0 7.49469e-010 -4.88947e-010 -3.60686e-010 1.7459 -0.111475 -0.0311475 1.3767e-009 -1.10795e-009 -7.98541e-010 0.952459 -0.347541 0.931148 0 0 -0 -0.955738 2.42623 -0.0754098 9.53286 2.86545 12.7008 -1.81967 -0.00819679 0 -0.251297 1.41558 54.2503 -4.0918 0.0114754 0 4.0787 1.88121 45.9165 -5.08361 0.0245902 -0.0819672 -5.23866 -47.3965 -9.75646 0 0 0 -8.35893e-010 -1.2235e-010 9.05218e-010 -1.7459 -0.111475 -0.0311475 -1.46298e-009 -2.25873e-010 1.53916e-009 -0.952459 -0.347541 0.931148 0 0 -0 
10.0284 14.8452 0.332816 11.3203 7.55044 -78.4033 0 1.60984 -0.00163934 0 0 -0 1.74098 -1.60984 0.00163934 0.720428 -25.81 -3.70103 -0.111475 -6.93934 -0.268852 0.0513251 26.435 -0.442253 -0.103279 -6.4 -0.236066 -0.167827 -17.7457 11.8323 0.00983607 -1.60984 2.07377 -1.56507e-011 -1.08879e-010 3.86755e-012 0 1.60984 -0.00163934 0 0 -0 -1.74098 -1.60984 0.00163934 5.35009 -32.0175 4.31297 0.111475 -6.93934 -0.268852 -0.162768 38.4831 0.693799 0.103279 -6.4 -0.236066 13.3259 -22.3269 -19.2242 -0.00983607 -1.60984 2.07377 -2.96905e-012 -3.55347e-011 5.94764e-012 0 1.60984 -0.00163934 0 0 -0 0 2.29672 0.170492 5.7161 0.164425 -1.491 0 2.28689 -0.265574 11.434 0.179499 -2.99106 0 2.42623 -0.0770492 0.0157127 0.116252 -1.2638 0 1.77869 0.32459 0.0157169 0.116245 -1.2638 0 5.71282e-008 0 7.7216 20.0598 -7.72053 0.955738 2.42623 -0.0754098 -28.0541 6.37091 -15.0074 1.81967 -0.00819679 1.1945e-009 -32.7883 28.424 11.0989 4.0918 0.0114754 0 -4.64996 2.62091 -55.2164 5.08361 0.0245902 -0.0819672 15.2033 19.5197 -8.60435 0 0 0 7.49469e-010 -4.88947e-010 -3.60686e-010 1.7459 -0.111475 -0.0311475 1.3767e-009 -1.10795e-009 -7.98541e-010 0.952459 -0.347541 0.931148 0 0 -0 -0.955738 2.42623 -0.0754098 8.74762 2.8483 13.3196 -1.81967 -0.00819679 0 -2.57838 0.273535 54.0582 -4.0918 0.0114754 0 4.08875 1.89209 46.0666 -5.08361 0.0245902 -0.0819672 -4.17898 -50.3879 -9.69771 0 0 0 -8.35893e-010 -1.2235e-010 9.05218e-010 -1.7459 -0.111475 -0.0311475 -1.46298e-009 -2.25873e-010 1.53916e-009 -0.952459 -0.347541 0.931148 0 0 -0 
10.0413 14.8577 0.286663 11.5407 7.71005 -77.9543 0 1.60984 -0.00163934 0 0 -0 1.74098 -1.60984 0.00163934 0.551885 -26.3335 -5.08065 -0.111475 -6.93934 -0.268852 0.0525963 26.597 -0.44534 -0.103279 -6.4 -0.236066 -0.0989017 -17.2057 12.6956 0.00983607 -1.60984 2.07377 -1.56507e-011 -1.08879e-010 3.86755e-012 0 1.60984 -0.00163934 0 0 -0 -1.74098 -1.60984 0.00163934 5.47703 -32.1743 4.19563 0.111475 -6.93934 -0.268852 -0.157855 38.1785 0.691035 0.103279 -6.4 -0.236066 13.3765 -22.4312 -19.4173 -0.00983607 -1.60984 2.07377 -2.96905e-012 -3.55347e-011 5.94764e-012 0 1.60984 -0.00163934 0 0 -0 0 2.29672 0.170492 5.59793 0.0858789 -1.85498 0 2.28689 -0.265574 11.1954 -0.00944973 -3.70964 0 2.42623 -0.0770492 0.0839837 -0.028429 -1.49885 0 1.77869 0.32459 0.0839705 -0.0284179 -1.49885 0 5.71282e-008 0 8.65021 19.4579 -8.83364 0.955738 2.42623 -0.0754098 -27.9486 6.40102 -15.1489 1.81967 -0.00819679 1.1945e-009 -32.1751 29.1473 11.0452 4.0918 0.0114754 0 -4.67472 2.65934 -55.6706 5.08361 0.0245902 -0.0819672 13.048 21.1733 -8.16532 0 0 0 7.49469e-010 -4.88947e-010 -3.60686e-010 1.7459 -0.111475 -0.0311475 1.3767e-009 -1.10795e-009 -7.98541e-010 0.952459 -0.347541 0.931148 0 0 -0 -0.955738 2.42623 -0.0754098 8.60654 2.87721 13.5257 -1.81967 -0.00819679 0 -4.62391 0.523727 54.4916 -4.0918 0.0114754 0 4.09002 1.89138 46.1032 -5.08361 0.0245902 -0.0819672 -5.02249 -53.2834 -9.02458 0 0 0 -8.35893e-010 -1.2235e-010 9.05218e-010 -1.7459 -0.111475 -0.0311475 -1.46298e-009 -2.25873e-010 1.53916e-009 -0.952459 -0.347541 0.931148 0 0 -0 
10.0427 14.8687 0.242285 11.8071 7.87222 -77.3324 0 1.60984 -0.00163934 0 0 -0 1.74098 -1.60984 0.00163934 0.388713 -26.7999 -6.40185 -0.111475 -6.93934 -0.268852 0.0522059 26.6478 -0.446087 -0.103279 -6.4 -0.236066 -0.184217 -16.8986 13.3075 0.00983607 -1.60984 2.07377 -1.56507e-011 -1.08879e-010 3.86755e-012 0 1.60984 -0.00163934 0 0 -0 -1.74098 -1.60984 0.00163934 5.59551 -32.3258 4.23799 0.111475 -6.93934 -0.268852 -0.153784 37.9272 0.688828 0.103279 -6.4 -0.236066 13.6099 -22.9037 -19.6459 -0.00983607 -1.60984 2.07377 -2.96905e-012 -3.55347e-011 5.94764e-012 0 1.60984 -0.00163934 0 0 -0 0 2.29672 0.170492 5.45545 -0.0538817 -1.90993 0 2.28689 -0.265574 10.9055 -0.289066 -3.80621 0 2.42623 -0.0770492 0.155652 -0.293768 -1.88088 0 1.77869 0.32459 0.155638 -0.293743 -1.88088 0 5.71282e-008 0 9.58474 18.9863 -10.4844 0.955738 2.42623 -0.0754098 -27.7743 6.44966 -15.3806 1.81967 -0.00819679 1.1945e-009 -31.3717 30.49 10.2994 4.0918 0.0114754 0 -4.67668 2.66241 -55.7067 5.08361 0.0245902 -0.0819672 11.1667 23.0058 -8.11786 0 0 0 7.49469e-010 -4.88947e-010 -3.60686e-010 1.7459 -0.111475 -0.0311475 1.3767e-009 -1.10795e-009 -7.98541e-010 0.952459 -0.347541 0.931148 0 0 -0 -0.955738 2.42623 -0.0754098 9.12462 2.91428 13.1783 -1.81967 -0.00819679 0 -3.04504 1.02964 52.28 -4.0918 0.0114754 0 4.2504 2.08024 48.507 -5.08361 0.0245902 -0.0819672 -6.91594 -50.8943 -8.14486 0 0 0 -8.35893e-010 -1.2235e-010 9.05218e-010 -1.7459 -0.111475 -0.0311475 -1.46298e-009 -2.25873e-010 1.53916e-009 -0.952459 -0.347541 0.931148 0 0 -0 
10.0314 14.8762 0.20029 11.975 8.06119 -76.6014 0 1.60984 -0.00163934 0 0 -0 1.74098 -1.60984 0.00163934 0.458625 -27.1301 -7.03295 -0.111475 -6.93934 -0.268852 0.0522479 26.7241 -0.447161 -0.103279 -6.4 -0.236066 -0.772742 -17.2258 12.9808 0.00983607 -1.60984 2.07377 -1.56507e-011 -1.08879e-010 3.86755e-012 0 1.60984 -0.00163934 0 0 -0 -1.74098 -1.60984 0.00163934 5.87285 -32.34 4.66491 0.111475 -6.93934 -0.268852 -0.150335 37.7159 0.687028 0.103279 -6.4 -0.236066 13.7003 -23.5561 -20.3487 -0.00983607 -1.60984 2.07377 -2.96905e-012 -3.55347e-011 5.94764e-012 0 1.60984 -0.00163934 0 0 -0 0 2.29672 0.170492 5.32642 -0.202717 -1.35871 0 2.28689 -0.265574 10.6461 -0.530805 -2.69289 0 2.42623 -0.0770492 0.20587 -0.512419 -2.31694 0 1.77869 0.32459 0.205856 -0.512407 -2.31694 0 5.71282e-008 0 10.2648 18.6078 -12.2726 0.955738 2.42623 -0.0754098 -27.5628 6.5057 -15.6564 1.81967 -0.00819679 1.1945e-009 -30.5448 32.3101 9.11017 4.0918 0.0114754 0 -4.65608 2.63023 -55.3293 5.08361 0.0245902 -0.0819672 9.67552 24.4264 -8.15814 0 0 0 7.49469e-010 -4.88947e-010 -3.60686e-010 1.7459 -0.111475 -0.0311475 1.3767e-009 -1.10795e-009 -7.98541e-010 0.952459 -0.347541 0.931148 0 0 -0 -0.955738 2.42623 -0.0754098 10.0625 3.01117 12.9034 -1.81967 -0.00819679 0 2.46952 0.921206 46.0139 -4.0918 0.0114754 0 4.53567 2.45756 53.1375 -5.08361 0.0245902 -0.0819672 -6.40724 -42.2604 -6.62883 0 0 0 -8.35893e-010 -1.2235e-010 9.05218e-010 -1.7459 -0.111475 -0.0311475 -1.46298e-009 -2.25873e-010 1.53916e-009 -0.952459 -0.347541 0.931148 0 0 -0 
